# xmcd CD database file
#
# Track frame offsets:
#	150
#	28712
#	59500
#	83697
#	107330
#	131120
#	148605
#	167257
#	181185
#	203395
#	215737
#	234410
#	252882
#	274012
#	285972
#	320287
#
# Disc length: 4410 seconds
#
# Revision: 2
# Processed by: cddbd v1.5.2PL0 Copyright (c) Steve Scherf et al.
# Submitted via: CDex 1.70beta3
#
DISCID=d4113810
DTITLE=木住野佳子 - Portrait
DYEAR=2005
DGENRE=Jazz
TTITLE0=Fairy Tale
TTITLE1=The Island
TTITLE2=Only Trust Your Heart
TTITLE3=Beautiful Love
TTITLE4=Scaborough Fair
TTITLE5=Manhattan Daylight
TTITLE6=Waltz For Debby
TTITLE7=You Are So Beautiful
TTITLE8=By The Sea
TTITLE9=Tenderness
TTITLE10=Air-Sul G
TTITLE11=Danny Boy
TTITLE12=Primavera
TTITLE13=Red Note
TTITLE14=Peace Piece
TTITLE15=[ Extra ]
EXTD=YEAR: 2005
EXTT0=
EXTT1=
EXTT2=
EXTT3=
EXTT4=
EXTT5=
EXTT6=
EXTT7=
EXTT8=
EXTT9=
EXTT10=
EXTT11=
EXTT12=
EXTT13=
EXTT14=
EXTT15=
PLAYORDER=
